# xmcd
#
# Track frame offsets:
#	150
#	14055
#	24660
#	35270
#	44897
#	58752
#	87000
#	103177
#	117372
#	127655
#	145905
#	155597
#	173747
#	204567
#	220472
#	235000
#	244627
#	261277
#	275862
#	293230
#	314695
#
# Disc length: 4415 seconds
# Revision: 0
# Processed by: cddbd v1.5.2PL0 Copyright (c) Steve Scherf et al.
# Submitted via: dBpowerAMP V12.0
#
DISCID=42113d15
DTITLE=Various Artist - 88miso - The Blues Experience
DYEAR=1994
DGENRE=Blues
TTITLE0=Alexis Korner and His Blues Incorporated - Hootsie Kootsie Man
TTITLE1=Blues By Five - Boom Boom
TTITLE2=The Mojos - Everything's All Right (All Night)
TTITLE3=Memphis Slim and Willie Dixon - Baby Please Come Home
TTITLE4=Savoy Brown - Let Me Love You Baby
TTITLE5=Roy Buchanan - After Hours
TTITLE6=Blues Breakers - John Mayall - All Your Love
TTITLE7=Eric Clapton - Ramblin' On My Mind
TTITLE8=The Graham Bond Organization - Long Legged Baby
TTITLE9=Peter Green - Evil Woman Blues
TTITLE10=Rod Stewart - Good Morning Little Schoolgirl
TTITLE11=Joe Cocker - Cry Me A River
TTITLE12=Bid Daddy Kinsey - Little Red Rooster
TTITLE13=Otis Spann - Country Boy
TTITLE14=Eddie Boyd Blues Band - Ain't Doing Too Bad
TTITLE15=Champion Jack Dupree - Shim-Sham-Shimmy
TTITLE16=Johnny Copeland - Jambalaya (On The Bayou)
TTITLE17=The Blues Wire - The Mean Thing
TTITLE18=Lucky Peterson - Who's Been Talking
TTITLE19=Lightnin' Hopkins - It's A Sing To Be Rich, It's A Low-down Shame To Be Poor
TTITLE20=Paul Rodgers - The Hunter
EXTD=
EXTT0=
EXTT1=
EXTT2=
EXTT3=
EXTT4=
EXTT5=
EXTT6=
EXTT7=
EXTT8=
EXTT9=
EXTT10=
EXTT11=
EXTT12=
EXTT13=
EXTT14=
EXTT15=
EXTT16=
EXTT17=
EXTT18=
EXTT19=
EXTT20=
PLAYORDER=
